<svg id="Layer_1" data-name="Layer 1" xmlns="http://www.w3.org/2000/svg" viewBox="0 0 189.1 33.95"><defs><style>.cls-1{fill:#fff;}</style></defs><path class="cls-1" d="M36.56,150.54V125H39.8v22.68H54.05v2.88Z" transform="translate(-36.56 -124.26)"/><path class="cls-1" d="M81.41,150.54H78.25V140.12a8,8,0,0,0-.92-4.33,3.12,3.12,0,0,0-2.79-1.38,5.82,5.82,0,0,0-2.58.64,7.87,7.87,0,0,0-2.26,1.73,6.47,6.47,0,0,0-1.43,2.51v11.25H65.11V131.86H68v4a8,8,0,0,1,1.94-2.28,8.68,8.68,0,0,1,2.7-1.5,9.34,9.34,0,0,1,3.17-.54,5.76,5.76,0,0,1,2.72.59,4.38,4.38,0,0,1,1.72,1.64,7.57,7.57,0,0,1,.9,2.49,16.64,16.64,0,0,1,.27,3.1Z" transform="translate(-36.56 -124.26)"/><path class="cls-1" d="M99.59,150.54l-6.51-9.11-3.57,3.34v5.77H86.35V124.26h3.16v17.21l9.72-9.61h3.42l-7.48,7.74L103,150.54Z" transform="translate(-36.56 -124.26)"/><path class="cls-1" d="M105.46,153.42v-2.88H119v2.88Z" transform="translate(-36.56 -124.26)"/><path class="cls-1" d="M139.37,130.35a5.5,5.5,0,0,0-1.15-1,10.24,10.24,0,0,0-1.62-.84,11,11,0,0,0-2-.61,10.07,10.07,0,0,0-2.22-.24,7,7,0,0,0-4.35,1.11,3.69,3.69,0,0,0-1.41,3.06,3.09,3.09,0,0,0,.72,2.15,5.19,5.19,0,0,0,2.22,1.29c1,.34,2.26.68,3.8,1a25.44,25.44,0,0,1,4.6,1.4,7.08,7.08,0,0,1,3,2.21,5.91,5.91,0,0,1,1,3.68,6.71,6.71,0,0,1-.71,3.17,6.09,6.09,0,0,1-2,2.23,8.9,8.9,0,0,1-3,1.29,15.74,15.74,0,0,1-3.67.41,17.77,17.77,0,0,1-3.8-.41,16.35,16.35,0,0,1-3.51-1.21,15.37,15.37,0,0,1-3.1-2l1.55-2.73a8.11,8.11,0,0,0,1.5,1.2,13.93,13.93,0,0,0,2.08,1.1,13.73,13.73,0,0,0,2.54.81,13.08,13.08,0,0,0,2.81.31,7.75,7.75,0,0,0,4.25-1,3.22,3.22,0,0,0,1.51-2.88,3.11,3.11,0,0,0-.85-2.3,6.46,6.46,0,0,0-2.5-1.44c-1.1-.38-2.45-.76-4-1.15a28.38,28.38,0,0,1-4.36-1.41,6.18,6.18,0,0,1-2.64-2,5.57,5.57,0,0,1-.88-3.27,7,7,0,0,1,1.18-4.13,7.44,7.44,0,0,1,3.28-2.55,12.33,12.33,0,0,1,4.72-.86,13.75,13.75,0,0,1,3.22.36,13.2,13.2,0,0,1,2.79,1,12.25,12.25,0,0,1,2.37,1.55Z" transform="translate(-36.56 -124.26)"/><path class="cls-1" d="M155.9,150.9a7.52,7.52,0,0,1-4.11-1.14,8.55,8.55,0,0,1-2.84-2.9v11.35h-3.17V131.86h2.81v3.53a8.68,8.68,0,0,1,2.91-2.77,7.66,7.66,0,0,1,3.93-1.05,8,8,0,0,1,3.56.79,8.79,8.79,0,0,1,2.81,2.14,10.29,10.29,0,0,1,1.85,3.09,10,10,0,0,1,.67,3.63,11.09,11.09,0,0,1-1.06,4.86,8.76,8.76,0,0,1-3,3.52A7.59,7.59,0,0,1,155.9,150.9Zm-1-2.73a5.44,5.44,0,0,0,2.54-.59,6.2,6.2,0,0,0,1.95-1.57,7.15,7.15,0,0,0,1.24-2.23,7.69,7.69,0,0,0,.43-2.56,7.21,7.21,0,0,0-1.85-4.85,6.65,6.65,0,0,0-2.06-1.51,5.81,5.81,0,0,0-2.53-.55,5.29,5.29,0,0,0-1.79.32,6.86,6.86,0,0,0-1.74.9,6.67,6.67,0,0,0-1.41,1.34,3.91,3.91,0,0,0-.75,1.6v5.32a8.41,8.41,0,0,0,1.44,2.21,6.87,6.87,0,0,0,2.09,1.58A5.45,5.45,0,0,0,154.92,148.17Z" transform="translate(-36.56 -124.26)"/><path class="cls-1" d="M166.73,145.14a4.82,4.82,0,0,1,1-3.09,6.49,6.49,0,0,1,2.82-2,11.23,11.23,0,0,1,4.18-.72,19.31,19.31,0,0,1,2.66.2,12.31,12.31,0,0,1,2.49.59v-1.36a4.35,4.35,0,0,0-1.3-3.35,5.12,5.12,0,0,0-3.67-1.23,8.12,8.12,0,0,0-3,.56,16.77,16.77,0,0,0-3,1.6l-1.15-2.23a15.45,15.45,0,0,1,3.67-1.89,11.73,11.73,0,0,1,3.82-.63,7.93,7.93,0,0,1,5.69,2,7.24,7.24,0,0,1,2.09,5.51V147a1.24,1.24,0,0,0,.23.84,1.06,1.06,0,0,0,.77.3v2.45c-.31.05-.58.09-.81.11s-.41,0-.55,0a2.15,2.15,0,0,1-1.68-.62,2.27,2.27,0,0,1-.63-1.29l-.07-1.19a8,8,0,0,1-3.2,2.45,9.86,9.86,0,0,1-3.93.86,7.07,7.07,0,0,1-3.35-.77,5.85,5.85,0,0,1-2.3-2.07A5.35,5.35,0,0,1,166.73,145.14ZM179,146.46a4.59,4.59,0,0,0,.69-1,2.16,2.16,0,0,0,.25-.87v-2.32a15,15,0,0,0-2.34-.66,13.36,13.36,0,0,0-2.41-.23,7.23,7.23,0,0,0-3.91.95,2.9,2.9,0,0,0-1.49,2.58,3.45,3.45,0,0,0,.48,1.73,3.81,3.81,0,0,0,1.44,1.37,4.73,4.73,0,0,0,2.36.54,6.94,6.94,0,0,0,2.81-.59A6.07,6.07,0,0,0,179,146.46Z" transform="translate(-36.56 -124.26)"/><path class="cls-1" d="M196.47,150.9a9.35,9.35,0,0,1-3.87-.77,9.26,9.26,0,0,1-3-2.12,9.93,9.93,0,0,1-2-3.11,10.08,10.08,0,0,1-.7-3.72,9.92,9.92,0,0,1,1.19-4.82,9.12,9.12,0,0,1,3.35-3.49,9.48,9.48,0,0,1,5-1.3,9.2,9.2,0,0,1,4.84,1.24,7.78,7.78,0,0,1,3.08,3.33l-3.09,1a5.29,5.29,0,0,0-2-2.07,5.71,5.71,0,0,0-2.88-.73,5.77,5.77,0,0,0-3.15.89,6.24,6.24,0,0,0-2.25,2.44,7.9,7.9,0,0,0,0,7.09,6.64,6.64,0,0,0,2.27,2.51,5.6,5.6,0,0,0,3.15.93,6,6,0,0,0,2.14-.4,6.2,6.2,0,0,0,1.8-1.06,3.59,3.59,0,0,0,1.06-1.46l3.1.94a7,7,0,0,1-1.75,2.43,8.83,8.83,0,0,1-2.77,1.67A9.73,9.73,0,0,1,196.47,150.9Z" transform="translate(-36.56 -124.26)"/><path class="cls-1" d="M216.23,150.9a9.34,9.34,0,0,1-6.89-2.87,10.06,10.06,0,0,1-1.46-11.64,9.39,9.39,0,0,1,8.39-4.82,9.08,9.08,0,0,1,4.95,1.34,9.41,9.41,0,0,1,3.27,3.51,9.62,9.62,0,0,1,1.17,4.66c0,.24,0,.47,0,.7a4,4,0,0,1-.06.52H210a7,7,0,0,0,1,3.22,6.46,6.46,0,0,0,2.29,2.21,6,6,0,0,0,3,.8,6.5,6.5,0,0,0,3.26-.87,4.55,4.55,0,0,0,2.1-2.27l2.74.76a7.23,7.23,0,0,1-1.82,2.45,8.85,8.85,0,0,1-2.84,1.69A10,10,0,0,1,216.23,150.9Zm-6.33-10.8h12.81a6.71,6.71,0,0,0-1-3.2,6.4,6.4,0,0,0-2.31-2.17,6.33,6.33,0,0,0-8.44,2.17A6.8,6.8,0,0,0,209.9,140.1Z" transform="translate(-36.56 -124.26)"/><g id="Ebene_1" data-name="Ebene 1"><polygon id="path2050" class="cls-1" points="20.33 26.28 20.33 7.94 16.44 7.94 21.44 1.55 26.44 7.94 22.55 7.94 22.55 26.28 20.33 26.28"/></g></svg>